<svg width="34" height="25" viewBox="0 0 34 25" fill="none" xmlns="http://www.w3.org/2000/svg">
<path d="M7.15383 12.8005V1.98317C3.6853 2.30369 1.95104 4.14663 1.95104 7.51202C1.95104 8.91426 2.40432 10.1162 3.31086 11.1178C4.21741 12.0793 5.49839 12.6402 7.15383 12.8005ZM3.01525 25L2.42402 24.399C5.22249 21.4343 6.79909 18.1891 7.15383 14.6635C4.986 14.6234 3.25174 13.9022 1.95104 12.5C0.650348 11.0577 0 9.39503 0 7.51202C0 5.42869 0.63064 3.66587 1.89192 2.22356C3.19262 0.741186 4.94658 0 7.15383 0C9.63697 0 11.4501 0.921474 12.5931 2.76442C13.7361 4.56731 14.3077 6.49038 14.3077 8.53365C14.3077 12.5801 13.0858 16.0056 10.6421 18.8101C8.23774 21.5745 5.69547 23.6378 3.01525 25ZM26.8462 12.8005V1.98317C23.3777 2.30369 21.6434 4.14663 21.6434 7.51202C21.6434 8.8742 22.0573 10.0561 22.885 11.0577C23.7521 12.0593 25.0725 12.6402 26.8462 12.8005ZM22.7076 25L21.9981 24.399C24.9148 21.3141 26.4914 18.0689 26.7279 14.6635C24.5995 14.6234 22.8653 13.9022 21.5251 12.5C20.2245 11.0577 19.5741 9.39503 19.5741 7.51202C19.5741 5.38862 20.2245 3.60577 21.5251 2.16346C22.8258 0.721154 24.5995 0 26.8462 0C29.2899 0 31.0833 0.921474 32.2263 2.76442C33.4088 4.56731 34 6.49038 34 8.53365C34 12.5801 32.7781 16.0056 30.3344 18.8101C27.9301 21.5745 25.3878 23.6378 22.7076 25Z" fill="#E8A490"/>
</svg>
