<?xml version="1.0" encoding="UTF-8"?>
<svg width="200px" height="200px" viewBox="0 0 200 200" version="1.1" xmlns="http://www.w3.org/2000/svg" xmlns:xlink="http://www.w3.org/1999/xlink">
    <g id="Page-1" stroke="none" stroke-width="1" fill="none" fill-rule="evenodd">
        <g id="Group">
            <rect id="Rectangle" x="0" y="0" width="200" height="200"></rect>
            <g id="ccc-logo" transform="translate(16.000000, 0.000000)" fill="#ffffff" fill-rule="nonzero">
                <path d="M153.738178,177.346 C155.176998,177.118667 156.534937,176.531 157.685324,175.637333 C158.160252,175.296 158.554966,174.855667 158.84273,174.346667 C159.130494,173.837667 159.303955,173.272333 159.351749,172.689333 C159.399208,172.106667 159.319663,171.520333 159.118463,170.971667 C158.917262,170.422667 158.599084,169.923667 158.186321,169.51 C157.874493,169.008 157.455715,168.581 156.959731,168.26 C156.463748,167.938667 155.902925,167.731333 155.317036,167.652667 C154.731482,167.573667 154.1359,167.625333 153.572404,167.804 C153.009242,167.982333 152.492537,168.283333 152.059053,168.685 C150.853853,169.663667 149.94611,170.959333 149.437426,172.426333 L145.578514,169.480333 C146.54508,167.748333 147.84687,166.226 149.408014,165.002667 C153.856158,161.379 158.598749,161.408667 162.339682,166.033667 C163.189271,166.968333 163.82429,168.077333 164.199954,169.283333 C164.575618,170.489333 164.683237,171.763 164.51479,173.014667 C164.346343,174.266667 163.906174,175.466333 163.225032,176.53 C162.544225,177.594 161.638821,178.495667 160.572323,179.172667 C159.019867,180.429 157.224768,181.351667 155.299323,181.883 L153.738178,177.346 Z" id="Path"></path>
                <path d="M125.752542,177.728333 C126.869842,177.236 128.080055,176.991 129.300629,177.009333 C130.521537,177.028 131.723729,177.309667 132.825655,177.835667 C133.92758,178.361333 134.902836,179.118667 135.685247,180.056 C136.467323,180.993333 137.038172,182.088333 137.35869,183.266667 C137.777803,184.409333 137.956277,185.626333 137.883416,186.841333 C137.810222,188.056 137.487031,189.243 136.933895,190.327 C136.38076,191.411333 135.609713,192.369333 134.668882,193.141667 C133.728385,193.914 132.638157,194.483667 131.467047,194.814667 C130.357101,195.318 129.150898,195.573333 127.931995,195.563333 C126.713427,195.553333 125.511235,195.278 124.409643,194.756667 C123.308052,194.235333 122.33313,193.48 121.552725,192.544 C120.772319,191.607667 120.205147,190.513 119.890645,189.335333 C119.461172,188.191333 119.274008,186.970333 119.340184,185.750333 C119.406694,184.53 119.72554,183.337 120.276336,182.246333 C120.827132,181.155333 121.598179,180.190667 122.540681,179.413 C123.483518,178.635333 124.577088,178.061667 125.752542,177.728333 Z M130.230097,190.749333 C132.586353,189.954 133.175584,187.803333 132.233081,185.122667 C131.290245,182.441667 129.434651,180.998333 127.078061,181.793667 C124.721471,182.589 124.13224,184.739667 125.075077,187.45 C126.017579,190.16 127.873507,191.515333 130.230097,190.749333 Z" id="Shape"></path>
                <path d="M95.7669297,182.059333 C100.332719,182.265667 103.690634,184.386667 103.484754,189.571667 L103.042914,200.000333 L97.622523,199.794 L98.0349513,190.013333 C98.0349513,187.715667 97.3868974,186.596333 95.5015584,186.537333 C93.6165537,186.478333 92.9390884,187.273667 92.8505199,189.66 L92.4380915,199.558333 L87.0474459,199.352 L87.4598743,189.365333 C87.4134176,188.305 87.6052603,187.247667 88.021365,186.271333 C88.4374698,185.294667 89.0671416,184.424 89.8639237,183.723 C90.6610401,183.022333 91.6048793,182.509 92.626592,182.221 C93.6479705,181.933 94.7211531,181.878 95.7669297,182.059333 Z" id="Path"></path>
                <polygon id="Path" points="56.1744776 190.072 51.5495316 188.039333 58.5016563 172.131333 63.774322 174.429333 65.4828582 185.977333 69.4005932 177.139333 73.9957936 179.172 67.1325716 194.933 61.7713374 192.605667 60.0922126 181.205"></polygon>
                <polygon id="Path" points="30.8430221 166.504667 39.6800179 157.343 43.5686757 161.113667 34.731212 170.275667 38.5018899 173.840333 35.4090116 177.022 24.0384225 165.974667 27.1314345 162.793"></polygon>
                <polygon id="Path" points="28.2200915 142.701333 12.8434663 150.272333 6.95205784 138.253 10.7225686 136.367333 14.3457883 143.644 16.3783515 142.642333 13.4326306 136.750333 17.2031413 134.894333 20.1488623 140.786333 22.2108369 139.755333 18.4403261 132.596667 22.2108369 130.711333"></polygon>
                <path d="M17.4666409,111.975 L18.1147283,117.336333 L1.05902841,119.428 L0.204767662,111.798 C-0.384373853,107.025667 1.50087819,104.256333 4.91789043,103.844 C5.98245018,103.674 7.07351365,103.848 8.03239282,104.340667 C8.99123857,104.833667 9.76800089,105.619333 10.2496463,106.583667 L16.1410882,101.546333 L16.8480653,107.438 L11.9876274,111.179333 L12.3116543,112.682 L17.4666409,111.975 Z M8.36440766,111.297333 C7.98145759,109.677 7.27448055,109.088 5.89000474,109.264667 C4.50549551,109.441333 4.09310059,110.236667 4.3287596,112.210667 L4.50549551,113.683667 L8.60003325,113.182667 L8.36440766,111.297333 Z" id="Shape"></path>
                <path d="M8.27787792,73.3543333 C7.28684672,74.415 6.58668778,75.714 6.24534818,77.125 C6.08836472,77.6883333 6.05477554,78.279 6.14685334,78.8566667 C6.23893115,79.434 6.4545035,79.985 6.77886468,80.4713333 C7.10322587,80.958 7.52875565,81.369 8.02637685,81.676 C8.52399804,81.983 9.08201292,82.1793333 9.66235373,82.251 C10.2177283,82.4383333 10.8072267,82.5023333 11.3898068,82.4383333 C11.9724203,82.3746667 12.5341451,82.185 13.035944,81.882 C13.537743,81.5793333 13.9675842,81.171 14.295555,80.685 C14.6235592,80.1993333 14.8418053,79.648 14.9351865,79.0693333 C15.2342806,77.5573333 15.132711,75.9933333 14.6406378,74.5326667 L19.4421192,74.356 C19.838906,76.3 19.838906,78.304 19.4421192,80.2476667 C18.2049344,85.8746667 14.4933468,88.8203333 8.69027284,87.5243333 C7.4441644,87.3226667 6.2571796,86.851 5.21247255,86.1423333 C4.1677655,85.4336667 3.29055983,84.5053333 2.64233211,83.422 C1.99410773,82.3386667 1.5905095,81.127 1.45980581,79.8713333 C1.32910212,78.6156667 1.47445471,77.3466667 1.88567651,76.153 C2.29691502,74.2053333 3.09857344,72.3613333 4.24226329,70.7323333 L8.27787792,73.3543333 Z" id="Path"></path>
                <path d="M30.045371,55.5603333 C27.5709681,59.39 24.1539626,61.2166667 19.6764747,58.5063333 L10.8393119,52.85 L13.7850329,48.3133333 L22.0035866,53.5866667 C23.9477484,54.8533333 25.2733011,54.765 26.2748602,53.1743333 C27.276386,51.5833333 26.952359,50.5816667 24.9198293,49.2856667 L16.5834627,43.924 L19.5291837,39.3873333 L27.9244733,44.8076667 C28.8506323,45.301 29.6554357,45.994 30.2804953,46.8366667 C30.9055548,47.6796667 31.3351955,48.651 31.5382346,49.6803333 C31.7413071,50.71 31.7126978,51.7716667 31.4544789,52.7886667 C31.19626,53.8056667 30.7149153,54.7526667 30.045371,55.5603333 Z" id="Path"></path>
                <polygon id="Path" points="43.8928697 38.3266667 33.2882476 24.7457333 37.5593875 21.4168333 45.4246032 31.4919667 50.6678574 27.3971 53.4074645 30.9027667"></polygon>
                <polygon id="Path" points="66.9868514 10.1340667 71.6412088 21.9178333 66.574423 23.8916 62.0674569 12.1078333 57.236631 13.9932667 55.6163291 9.86893333 70.3451009 3.97706667 71.9650686 8.10136667"></polygon>
                <path d="M97.4139693,17.7049333 C92.8481803,17.7049333 89.3722851,15.8784667 89.2546394,10.6641333 L89.0484252,0.235512 L94.4684823,0.235512 L94.6746964,9.9866 C94.6746964,12.3138667 95.5289645,13.3449333 97.4139693,13.3155 C99.2993082,13.2860333 99.9179507,12.4022667 99.8885393,10.0160333 L99.741148,0.0292968667 L105.131794,0.0292968667 L105.338008,10.0160333 C105.427913,11.069 105.282861,12.1287667 104.912879,13.1187 C104.543231,14.1086333 103.957676,15.0039333 103.199329,15.7398333 C102.440983,16.4757333 101.52856,17.0338 100.527903,17.3736667 C99.5272467,17.7135333 98.4637565,17.8267 97.4139693,17.7049333 Z" id="Path"></path>
                <path d="M124.573411,21.3285 L119.448137,19.5314667 L125.162643,3.26985667 L132.526861,5.8623 C137.033827,7.4531 138.712952,10.3696 137.564236,13.6101333 C137.245389,14.6368333 136.608364,15.5355667 135.745407,16.1763667 C134.882115,16.8171667 133.837675,17.1668 132.762487,17.1747 L134.618414,24.8341667 L128.962732,22.8309333 L127.78427,16.9390333 L126.281948,16.5560667 L124.573411,21.3285 Z M129.227769,13.4333667 C130.818325,13.8163333 131.672593,13.4333667 132.17359,12.1076667 C132.674253,10.782 132.17359,10.075 130.25884,9.42686667 L128.81534,8.86716667 L127.430998,12.7852667 L129.227769,13.4333667 Z" id="Shape"></path>
                <polygon id="Path" points="145.842882 31.551 156.653585 18.1469667 167.140428 26.5429 164.489389 29.8129 158.126495 24.6869667 156.712742 26.4545333 161.720371 30.4904667 159.098743 33.7603333 154.061369 29.7834333 152.618204 31.5804667 158.951352 36.7063333 156.329725 39.9763333"></polygon>
                <path d="M53.2305269,99.956 C53.2319986,109.068 55.9335045,117.975333 60.9936058,125.553333 C66.0537072,133.131 73.2458023,139.039 81.6611452,142.531667 C90.0768223,146.024333 99.3387462,146.944667 108.27681,145.176333 C117.215209,143.408333 125.429016,139.030667 131.881147,132.597 L115.650387,116.364667 C112.40711,119.546 108.296864,121.698667 103.835017,122.552667 C99.373171,123.406667 94.7585858,122.923667 90.5701321,121.165 C86.3813441,119.406 82.8055169,116.449333 80.2908404,112.665667 C77.7761638,108.882 76.434602,104.44 76.434602,99.897 C76.434602,95.354 77.7761638,90.912 80.2908404,87.1283333 C82.8055169,83.3446667 86.3813441,80.388 90.5701321,78.629 C94.7585858,76.8703333 99.373171,76.3873333 103.835017,77.2413333 C108.296864,78.0953333 112.40711,80.248 115.650387,83.429 L131.881147,67.197 C125.421998,60.756 117.197161,56.3763333 108.248067,54.6116667 C99.2986398,52.8473333 90.0273577,53.7776667 81.6066672,57.2846667 C73.186311,60.792 65.9955528,66.7183333 60.9444754,74.3143333 C55.8930638,81.91 53.2086032,90.8336667 53.2305269,99.956 Z" id="Path"></path>
            </g>
        </g>
    </g>
</svg>
